<?xml version="1.0" standalone="no"?>
<!DOCTYPE svg PUBLIC "-//W3C//DTD SVG 20010904//EN"
 "http://www.w3.org/TR/2001/REC-SVG-20010904/DTD/svg10.dtd">
<svg version="1.0" xmlns="http://www.w3.org/2000/svg"
 width="192.000000pt" height="192.000000pt" viewBox="0 0 192.000000 192.000000"
 preserveAspectRatio="xMidYMid meet">

<g transform="translate(0.000000,192.000000) scale(0.100000,-0.100000)"
fill="#000000" stroke="none">
<path d="M877 1913 c-4 -3 -7 -30 -7 -59 l0 -53 -57 -3 -58 -3 0 -85 0 -85 58
-3 57 -3 0 -77 -1 -77 -245 -195 c-135 -107 -252 -202 -261 -212 -15 -16 -13
-22 25 -70 91 -117 98 -124 121 -110 27 16 31 15 31 -5 -1 -12 -99 -91 -266
-216 -146 -109 -268 -205 -271 -213 -3 -9 18 -44 51 -88 70 -92 83 -103 98
-88 24 24 28 10 28 -98 l0 -109 -87 -3 c-86 -3 -88 -3 -88 -28 l0 -25 955 0
955 0 0 25 c0 25 -2 25 -87 28 l-88 3 0 109 c0 108 4 122 28 98 15 -15 28 -4
98 88 33 44 54 79 51 88 -3 8 -125 104 -271 213 -167 125 -265 204 -266 216 0
20 4 21 31 5 23 -14 30 -7 121 110 38 48 40 54 25 70 -9 10 -126 105 -261 212
l-245 195 -1 78 0 77 48 0 c26 0 53 5 60 12 16 16 16 140 0 156 -7 7 -34 12
-60 12 l-48 0 0 48 c0 26 -5 53 -12 60 -13 13 -149 17 -161 5z m115 -110 l3
-58 58 -3 c56 -3 57 -4 57 -32 0 -28 -1 -29 -57 -32 l-58 -3 -3 -86 -3 -86
-29 0 -30 0 0 77 c0 46 -5 81 -12 88 -7 7 -34 12 -60 12 -47 0 -48 1 -48 30 0
29 1 30 48 30 26 0 53 5 60 12 7 7 12 34 12 60 0 46 1 48 30 48 28 0 29 -1 32
-57z m237 -559 c281 -225 268 -214 255 -214 -5 0 -117 87 -249 192 -210 169
-244 193 -275 192 -31 0 -65 -24 -275 -192 -132 -106 -244 -192 -249 -192 -12
0 -35 -19 249 209 164 131 258 200 274 201 16 0 102 -63 270 -196z m-84 -158
l175 -139 0 -444 0 -443 -60 0 -59 0 -3 157 -3 157 -50 38 c-27 21 -80 59
-117 85 l-68 46 -67 -46 c-38 -26 -90 -64 -118 -85 l-50 -38 -3 -157 -3 -157
-59 0 -60 0 0 443 0 443 178 142 c97 78 181 141 185 139 4 -1 87 -65 182 -141z
m-605 -321 c0 -10 -454 -345 -459 -339 -3 4 -1 8 4 11 6 2 107 77 225 167 201
153 230 174 230 161z m1075 -164 c121 -90 222 -166 224 -168 2 -2 2 -5 -1 -8
-5 -5 -458 331 -458 341 0 10 10 3 235 -165z m-1075 -296 l0 -245 -150 0 -150
0 0 138 1 137 142 107 c78 59 145 107 150 107 4 1 7 -109 7 -244z m998 135
l141 -105 1 -137 0 -138 -150 0 -150 0 0 246 c0 135 4 244 9 242 4 -1 72 -50
149 -108z m-477 -37 l79 -57 0 -143 0 -143 -30 0 -30 0 0 103 c0 84 -4 108
-20 135 -42 69 -130 79 -186 21 -28 -29 -29 -34 -32 -145 l-4 -114 -29 0 -29
0 0 143 0 144 87 62 c48 34 93 59 101 56 7 -3 49 -30 93 -62z m-61 -123 c17
-17 20 -33 20 -120 l0 -100 -60 0 -60 0 0 100 c0 87 3 103 20 120 11 11 29 20
40 20 11 0 29 -9 40 -20z"/>
<path d="M905 1006 c-37 -17 -70 -52 -84 -89 -15 -40 -14 -230 1 -245 19 -19
262 -16 278 3 8 10 11 49 8 129 -2 97 -6 119 -24 142 -47 64 -119 88 -179 60z
m116 -75 c28 -28 29 -33 29 -120 l0 -91 -90 0 -90 0 0 91 c0 87 1 92 29 120
40 39 82 39 122 0z"/>
</g>
</svg>
